0
SECTION
2
HEADER
9
$INSUNITS
70
4
9
$MEASUREMENT
70
1
0
ENDSEC
0
SECTION
2
ENTITIES
0
ARC
8
0
10
0.000000
20
-52.500000
30
0.0
40
34.000000
50
173.300235
51
317.297723
0
LINE
8
0
10
24.986180
20
-75.558422
30
0.0
11
82.197753
21
-13.563778
31
0.0
0
ARC
8
0
10
67.500000
20
0.000000
30
0.0
40
20.000000
50
317.297723
51
0.000000
0
LINE
8
0
10
87.500000
20
0.000000
30
0.0
11
87.500000
21
67.500000
31
0.0
0
ARC
8
0
10
67.500000
20
67.500000
30
0.0
40
20.000000
50
0.000000
51
90.000000
0
LINE
8
0
10
67.500000
20
87.500000
30
0.0
11
0.000000
21
87.500000
31
0.0
0
ARC
8
0
10
0.000000
20
67.500000
30
0.0
40
20.000000
50
90.000000
51
173.300235
0
LINE
8
0
10
-19.863423
20
69.833333
30
0.0
11
-33.767818
21
-48.533333
31
0.0
0
CIRCLE
8
0
10
0.000000
20
0.000000
30
0.0
40
11.500000
0
CIRCLE
8
0
10
15.500000
20
15.500000
30
0.0
40
1.700000
0
CIRCLE
8
0
10
-15.500000
20
15.500000
30
0.0
40
1.700000
0
CIRCLE
8
0
10
-15.500000
20
-15.500000
30
0.0
40
1.700000
0
CIRCLE
8
0
10
15.500000
20
-15.500000
30
0.0
40
1.700000
0
CIRCLE
8
0
10
67.500000
20
0.000000
30
0.0
40
2.450000
0
CIRCLE
8
0
10
67.500000
20
67.500000
30
0.0
40
2.450000
0
CIRCLE
8
0
10
0.000000
20
67.500000
30
0.0
40
2.450000
0
CIRCLE
8
0
10
0.000000
20
-52.500000
30
0.0
40
11.200000
0
CIRCLE
8
0
10
8.750000
20
-37.344555
30
0.0
40
1.700000
0
CIRCLE
8
0
10
-17.500000
20
-52.500000
30
0.0
40
1.700000
0
CIRCLE
8
0
10
8.750000
20
-67.655445
30
0.0
40
1.700000
0
CIRCLE
8
0
10
17.677670
20
-34.822330
30
0.0
40
2.750000
0
CIRCLE
8
0
10
-17.677670
20
-34.822330
30
0.0
40
2.750000
0
CIRCLE
8
0
10
-17.677670
20
-70.177670
30
0.0
40
2.750000
0
CIRCLE
8
0
10
17.677670
20
-70.177670
30
0.0
40
2.750000
0
ENDSEC
0
EOF
